Coordinates
version=1
nRows=27
nColumns=19
inDegrees=yes

Units are S.I. units (second, meters, Newtons, ...)
If the header above contains a line with 'inDegrees', this indicates whether rotational values are in degrees (yes) or radians (no).

endheader
time	pelvis_tilt	pelvis_list	pelvis_rotation	pelvis_tx	pelvis_ty	pelvis_tz	hip_flexion_r	hip_adduction_r	hip_rotation_r	knee_angle_r	knee_angle_r_beta	ankle_angle_r	hip_flexion_l	hip_adduction_l	hip_rotation_l	knee_angle_l	knee_angle_l_beta	ankle_angle_l
     12.06666667	     -6.70045606	     -7.45754573	     -0.56504834	      2.41663586	      0.98552856	      1.04538383	     32.70278529	      9.91109544	     -1.86128521	     11.48838350	      0.20051012	      2.81387355	     -8.68314982	     -8.26587417	     -4.88237651	     76.28875199	      1.33148990	    -23.40260229
     12.07333333	     -6.11057021	     -7.67594115	     -1.26300289	      2.41631524	      0.98218183	      1.04629635	     32.16907557	     10.29744085	     -3.00888057	     14.28386565	      0.24930049	      2.53322169	     -7.87321733	     -8.46941724	     -5.21603329	     80.39891841	      1.40322584	    -22.94740422
     12.08000000	     -5.77753140	     -7.90891854	     -2.00291595	      2.41602545	      0.97820009	      1.04735408	     31.93962518	     10.64745279	     -4.05692711	     17.34362181	      0.30270330	      2.26353423	     -6.73782149	     -8.76912984	     -5.56879569	     84.40480004	      1.47314167	    -22.29803369
     12.08666667	     -5.57490156	     -8.14438201	     -2.72902468	      2.41560122	      0.97382257	      1.04845256	     31.89802518	     10.93966256	     -5.02097499	     20.65863950	      0.36056128	      2.20237979	     -5.37866106	     -9.14719049	     -5.87225535	     88.29652953	      1.54106516	    -21.44717923
     12.09333333	     -5.47950939	     -8.37486737	     -3.42128456	      2.41505152	      0.96918860	      1.04955987	     31.97200337	     11.18754619	     -5.82173622	     24.10661279	      0.42073976	      2.44533361	     -3.81181318	     -9.60678952	     -6.09967020	     92.04606333	      1.60650687	    -20.47050340
     12.10000000	     -5.56559509	     -8.58437848	     -4.09854760	      2.41425943	      0.96431687	      1.05064947	     32.21405462	     11.41773074	     -6.37923787	     27.60516170	      0.48180096	      3.05462981	     -1.92215694	    -10.11961340	     -6.22957511	     95.65845278	      1.66955496	    -19.35918731
     12.10666667	     -4.93461839	     -9.10584426	     -4.71962439	      2.41350977	      0.96048848	      1.05173907	     31.43178482	     11.99746034	     -6.66367541	     30.74980936	      0.53668542	      4.09480075	     -0.85988180	    -11.06939992	     -6.45731430	     98.90734128	      1.72625876	    -18.20474452
     12.11333333	     -5.86566972	     -8.87255656	     -5.23618133	      2.41195397	      0.95489374	      1.05260234	     32.56309895	     11.80088723	     -6.75992528	     34.32419482	      0.59907021	      5.58159453	      2.45146778	    -11.17757915	     -6.06211248	    102.29200692	      1.78533232	    -16.96016685
     12.12000000	     -6.07311314	     -8.94514178	     -5.67247765	      2.41042671	      0.95061662	      1.05341501	     32.54957540	     11.97366761	     -6.60669079	     37.31183352	      0.65121434	      7.42015255	      4.97516830	    -11.67750197	     -5.72677002	    105.25616929	      1.83706671	    -15.75073622
     12.12666667	     -6.25003900	     -8.96728657	     -5.99040697	      2.40858765	      0.94683063	      1.05404247	     32.28525550	     12.11962956	     -6.26945785	     39.93903164	      0.69706760	      9.56896101	      7.68400486	    -12.12028508	     -5.21495653	    107.95139559	      1.88410729	    -14.59501909
     12.13333333	     -6.35963671	     -8.91763240	     -6.16322622	      2.40650842	      0.94368770	      1.05444170	     31.69077858	     12.18873175	     -5.81110434	     42.13496586	      0.73539388	     11.94323614	     10.53878147	    -12.43978956	     -4.52655476	    110.31867927	      1.92542418	    -13.53527811
     12.14000000	     -5.91190028	     -8.99800051	     -6.27519899	      2.40443301	      0.94183397	      1.05473368	     30.10666742	     12.41197566	     -5.15723297	     43.70867281	      0.76286025	     14.48770240	     12.83278897	    -12.86756841	     -3.87384790	    112.23336204	      1.95884170	    -12.50439582
     12.14666667	     -6.38494619	     -8.71994216	     -6.11855438	      2.40179432	      0.93942335	      1.05457759	     29.40694761	     12.17425969	     -4.68891453	     44.99877172	      0.78537673	     16.83415870	     16.61186375	    -12.77075713	     -2.76583443	    113.99406257	      1.98957172	    -11.71649135
     12.15333333	     -5.92770190	     -8.58625847	     -6.05504613	      2.39955249	      0.93892988	      1.05462669	     27.21838626	     12.18100073	     -3.83273293	     45.54185239	      0.79485527	     19.13630862	     19.18275203	    -12.82437988	     -2.03620582	    115.09237619	      2.00874091	    -10.97441861
     12.16000000	     -5.95138072	     -8.35820309	     -5.47956618	      2.39712736	      0.93836499	      1.05394844	     25.37738065	     11.80022968	     -3.63518921	     45.66812201	      0.79705909	     21.13567285	     22.64657308	    -12.44423738	     -0.71566483	    115.94516800	      2.02362493	    -10.34312544
     12.16666667	     -5.67095240	     -8.02661981	     -5.12765770	      2.39524708	      0.93887371	      1.05376431	     22.86791004	     11.47228121	     -3.03080001	     45.28302423	      0.79033787	     22.94285941	     25.49215592	    -12.08667069	      0.04811721	    116.15808673	      2.02734107	     -9.69594302
     12.17333333	     -5.50055472	     -7.61643625	     -4.86661912	      2.39339645	      0.93990389	      1.05350201	     20.26096455	     11.06814494	     -2.36923218	     44.46286805	      0.77602344	     24.09905208	     28.37628914	    -11.50865414	      0.64029339	    115.96275689	      2.02393192	     -9.13284415
     12.18000000	     -4.97623083	     -7.36208887	     -3.76408608	      2.39222025	      0.94175781	      1.05254978	     17.02222232	     10.47832857	     -2.77856210	     43.10513354	      0.75232650	     24.93944550	     30.94364907	    -10.68495514	      1.85594984	    115.34324134	      2.01311933	     -8.67551704
     12.18666667	     -4.00006046	     -6.95513050	     -3.09294601	      2.39170391	      0.94502402	      1.05228541	     13.00292801	      9.94443326	     -2.63127807	     41.23987084	      0.71977153	     25.06802385	     32.47853671	     -9.95785456	      2.28014430	    114.07314670	      1.99095200	     -8.04000961
     12.19333333	     -3.46942233	     -6.39215972	     -2.33307599	      2.39165885	      0.94815125	      1.05203401	      9.40588587	      9.26762943	     -2.71906622	     39.22026030	      0.68452268	     24.67135134	     34.32259898	     -8.96482544	      2.63714035	    112.42703270	      1.96222189	     -7.49964988
     12.20000000	     -2.55242080	     -5.65185627	     -1.84776838	      2.39227854	      0.95242298	      1.05232502	      5.20309809	      8.50936672	     -2.46649534	     36.81349181	      0.64251664	     23.63568281	     35.25240794	     -8.04175087	      2.40301356	    110.22584071	      1.92380384	     -6.83212478
     12.20666667	     -2.02982301	     -4.85550977	     -1.30529618	      2.39334364	      0.95653070	      1.05262160	      1.40436728	      7.70944275	     -2.45616355	     34.26901852	      0.59810720	     22.00022827	     36.40415101	     -7.00707671	      2.14794429	    107.70467832	      1.87980126	     -6.21396185
     12.21333333	     -1.63334789	     -3.94300161	     -0.85010437	      2.39485145	      0.96085096	      1.05307103	     -2.26965729	      6.81205052	     -2.49242943	     31.60720063	      0.55164972	     19.75454978	     37.38418209	     -5.93377463	      1.64498194	    104.80672647	      1.82922246	     -5.63496631
     12.22000000	     -1.39208583	     -2.96257421	     -0.50798525	      2.39673964	      0.96527635	      1.05362525	     -5.75700168	      5.86907233	     -2.48250033	     28.85656463	      0.50364206	     16.90499709	     38.24160738	     -4.87522246	      0.93094756	    101.56691584	      1.77267709	     -5.06071973
     12.22666667	     -1.24638742	     -1.88921903	     -0.42950722	      2.39890423	      0.96984119	      1.05443753	     -9.05735795	      4.81629249	     -2.25276704	     26.11870121	      0.45585733	     13.56548339	     38.88548829	     -3.93874636	     -0.14625215	     97.97954549	      1.71006567	     -4.49557314
     12.23333333	     -1.39817898	     -0.82014641	     -0.35328021	      2.40122338	      0.97413114	      1.05505870	    -11.90541276	      3.74179999	     -2.13117800	     23.46223471	      0.40949325	      9.75276276	     39.66699768	     -2.98661806	     -1.25253708	     94.13769232	      1.64301268	     -3.97516378
     12.24000000	     -1.77726739	      0.23496851	     -0.29375196	      2.40362376	      0.97815704	      1.05552512	    -14.35733613	      2.66416221	     -2.02836575	     20.92506307	      0.36521125	      5.55829055	     40.51071229	     -2.06218207	     -2.41340077	     90.04836164	      1.57164040	     -3.50342548
